<?xml version="1.0" encoding="UTF-8"?>
<svg width="92px" height="16px" viewBox="0 0 92 16" version="1.1" xmlns="http://www.w3.org/2000/svg" xmlns:xlink="http://www.w3.org/1999/xlink">
    <title>SON_logo_white_</title>
    <g id="Showcase-Jan26" stroke="none" stroke-width="1" fill="none" fill-rule="evenodd">
        <g id="COMP---OVERVIEW-Copy" transform="translate(-24.000000, -38.000000)" fill="#FFFFFF" fill-rule="nonzero">
            <g id="Group-4-Copy-2" transform="translate(24.000000, 32.000000)">
                <g id="SON_logo_white_" transform="translate(0.000000, 6.000000)">
                    <path d="M17.7424202,9.94085973 C18.61357,10.7374085 19.7576351,11.1961299 20.9563665,11.2295153 C22.1924996,11.2295153 22.8200749,10.7945175 22.8200749,10.1124082 C22.8200749,9.31593324 21.8206032,9.0320614 20.6626528,8.78494994 C19.0356057,8.44389529 17.0958275,8.02727763 17.0958275,5.9809497 C17.0958275,4.4860275 18.4291609,3.20145637 20.8190183,3.20145637 C22.1715339,3.17062366 23.4869781,3.63035539 24.5062874,4.49011198 L23.6441637,5.89313323 C23.0757538,5.26820674 22.0150036,4.79440626 20.8401488,4.79440626 C19.7603812,4.79440626 19.0757536,5.17222129 19.0757536,5.81552798 C19.0757536,6.51601748 20.01606,6.76312894 21.1338625,7.00819815 C22.779927,7.3492528 24.8000007,7.80467309 24.8000007,9.96536665 C24.8000007,11.5746545 23.4075023,12.8000006 20.8591662,12.8000006 C19.2511366,12.8000006 17.7804551,12.3078199 16.8000007,11.3704301 L17.7424202,9.94085973 Z" id="Path"></path>
                    <path d="M25.6000011,7.99183013 C25.6000011,5.37531938 27.4304567,3.20000014 30.3895892,3.20000014 C33.3841229,3.20000014 35.2000015,5.37940449 35.2000015,7.99591524 C35.2000015,10.612426 33.3820405,12.8000006 30.3895892,12.8000006 C27.4304567,12.8000006 25.6000011,10.6246813 25.6000011,7.99183013 Z M33.0967476,7.99183013 C33.0967476,6.38025559 32.1305003,4.95863851 30.3895892,4.95863851 C28.648678,4.95863851 27.703255,6.38842581 27.703255,7.99183013 C27.703255,9.59523446 28.6674199,11.0434047 30.3895892,11.0434047 C32.1117584,11.0434047 33.0967476,9.62178765 33.0967476,7.99183013 Z" id="Shape"></path>
                    <path d="M42.8464902,6.94088464 C42.8464902,5.47715118 42.1426662,5.00039229 41.04694,5.00039229 C40.1362453,5.02448488 39.2873875,5.48764469 38.7475148,6.25502096 L38.7475148,12.8000006 L36.8000016,12.8000006 L36.8000016,3.4300154 L38.7475148,3.4300154 L38.7475148,4.70973664 C39.5463499,3.75811827 40.6959043,3.20876444 41.9067251,3.20000014 C43.8362428,3.20000014 44.8000016,4.28734499 44.8000016,6.20692686 L44.8000016,12.8000006 L42.8464902,12.8000006 L42.8464902,6.94088464 Z" id="Path"></path>
                    <path d="M52.4406956,11.5930208 C51.7715169,12.3690822 50.7265533,12.8000006 49.5328833,12.8000006 C48.0598865,12.8000006 46.400002,11.7972475 46.400002,9.76927654 C46.400002,7.66574167 48.0598865,6.79369372 49.5328833,6.79369372 C50.7386106,6.79369372 51.7896028,7.2021471 52.4406956,7.96799717 L52.4406956,6.60784744 C52.4406956,5.54791094 51.5846292,4.90255461 50.3346919,4.90255461 C49.3276412,4.90294776 48.3644134,5.32121689 47.6680252,6.06051992 L46.864207,4.67790526 C47.8874657,3.69989587 49.2478565,3.16961584 50.6522001,3.20134632 C52.6476787,3.20134632 54.400002,4.05501387 54.400002,6.5179877 L54.400002,12.5773935 L52.4406956,12.5773935 L52.4406956,11.5930208 Z M52.4406956,9.10962434 C51.9945765,8.48469068 51.1545865,8.16201252 50.2985201,8.16201252 C49.1972892,8.16201252 48.3773947,8.80736885 48.3773947,9.81012187 C48.3773947,10.8128749 49.1972892,11.4439354 50.2985201,11.4439354 C51.1545865,11.4439354 51.9945765,11.1232995 52.4406956,10.4963235 L52.4406956,9.10962434 Z" id="Shape"></path>
                    <path d="M57.4787213,10.4276436 L57.4787213,5.08674596 L56.0000024,5.08674596 L56.0000024,3.32707596 L57.4787213,3.32707596 L57.4787213,0.800000035 L59.4217819,0.800000035 L59.4217819,3.32707596 L61.2333122,3.32707596 L61.2333122,5.08674596 L59.4217819,5.08674596 L59.4217819,9.93048006 C59.4217819,10.5617333 59.7167286,11.0217643 60.2707499,11.0217643 C60.5892008,11.0309007 60.8990991,10.9143842 61.1376539,10.6958231 L61.6000027,12.2079428 C61.2492553,12.5524503 60.677298,12.8 59.7705364,12.8 C58.2738815,12.7958747 57.4787213,11.9583296 57.4787213,10.4276436 Z" id="Path"></path>
                    <path d="M64.3893758,14.243098 C65.0137329,14.243098 65.4299709,14.0542056 65.6952207,13.4509685 L66.150226,12.4151069 L62.4000027,3.20000014 L64.5220007,3.20000014 L67.1908212,10.0204384 L69.8596417,3.20000014 L72.0000031,3.20000014 L67.5886958,13.9445261 C66.9643387,15.4901943 65.8645724,15.9756275 64.4465065,16.0000007 C64.0703028,15.9932743 63.6957224,15.9490463 63.3283768,15.8679791 L63.6323938,14.0948276 C63.8729533,14.1917207 64.1298724,14.2420436 64.3893758,14.243098 Z" id="Path"></path>
                    <path d="M72.8000031,16.0000007 L72.8000031,3.42349479 L74.7488891,3.42349479 L74.7488891,4.66692316 C75.4253017,3.74311359 76.492509,3.19902582 77.6261971,3.20000145 C79.9472522,3.20000145 81.6000035,4.97168501 81.6000035,7.97054167 C81.6000035,10.9693983 79.9472522,12.7492076 77.6261971,12.7492076 C76.4860814,12.7556061 75.413625,12.200512 74.7488891,11.259938 L74.7488891,16.0000007 L72.8000031,16.0000007 Z M77.051936,4.9533993 C76.1383964,4.97027118 75.285649,5.42164693 74.7488891,6.17244672 L74.7488891,9.77473186 C75.2911795,10.5189907 76.1405103,10.9685579 77.051936,10.9937793 C78.5926364,10.9937793 79.5770839,9.73003345 79.5770839,7.9583512 C79.5770839,6.18666894 78.5926364,4.94933581 77.051936,4.94933581 L77.051936,4.9533993 Z" id="Shape"></path>
                    <path d="M87.6638288,3.20000014 C90.3052036,3.20000014 92.000004,5.29974491 92.000004,8.18178759 L92.000004,8.65565995 L85.203128,8.65565995 C85.3484527,10.0384685 86.3519787,11.1741281 88.009466,11.1741281 C88.8657035,11.1741281 89.8869041,10.8146388 90.5055161,10.1712345 L91.381392,11.4784686 C90.5055161,12.3506388 89.2113406,12.8000006 87.8091535,12.8000006 C85.1677787,12.8000006 83.2000036,10.8861281 83.2000036,7.98774503 C83.2000036,5.33855342 85.0578033,3.20000014 87.6638288,3.20000014 Z M85.1854534,7.25242584 L90.1422043,7.25242584 C90.1048912,6.17191516 89.3939784,4.83404276 87.6638288,4.83404276 C86.0240162,4.83404276 85.2757903,6.13310665 85.1854534,7.25242584 Z" id="Shape"></path>
                    <path d="M6.79581568,0 L0,3.80000016 L0,11.4020272 L6.79581568,15.2000007 L13.6000006,11.4020272 L13.6000006,3.80000016 L6.79581568,0 Z M11.6416005,10.3116804 L6.79581568,13.0213339 L1.95003085,10.3116804 L1.95003085,10.3116804 L1.95003085,4.89034688 L1.95003085,4.89034688 L6.79581568,2.18069343 L11.6416005,4.89034688 L11.6416005,4.89034688 L11.6416005,10.3116804 Z" id="Shape"></path>
                </g>
            </g>
        </g>
    </g>
</svg>